<?xml version="1.0" standalone="no"?>
<!DOCTYPE svg PUBLIC "-//W3C//DTD SVG 20010904//EN"
 "http://www.w3.org/TR/2001/REC-SVG-20010904/DTD/svg10.dtd">
<svg version="1.0" xmlns="http://www.w3.org/2000/svg"
 width="1024.000000pt" height="1024.000000pt" viewBox="0 0 1024.000000 1024.000000"
 preserveAspectRatio="xMidYMid meet">

<g transform="translate(0.000000,1024.000000) scale(0.100000,-0.100000)"
fill="#000000" stroke="none">
<path d="M0 5120 l0 -5120 5120 0 5120 0 0 5120 0 5120 -5120 0 -5120 0 0
-5120z m2493 3365 c111 -29 198 -101 245 -203 30 -66 27 -70 -79 -105 -85 -28
-96 -25 -129 28 -12 19 -43 48 -68 63 -39 22 -59 27 -117 27 -59 0 -78 -5
-117 -28 -92 -53 -133 -170 -126 -353 4 -101 7 -118 36 -177 41 -83 87 -117
170 -124 68 -6 121 8 171 45 36 27 70 92 71 135 l0 27 -94 0 c-68 0 -97 4
-105 14 -7 9 -11 42 -9 88 l3 73 220 0 220 0 -1 -105 c-2 -169 -43 -278 -141
-371 -97 -92 -238 -133 -386 -112 -196 28 -321 151 -372 366 -20 84 -20 294 0
372 43 166 152 291 294 336 72 23 234 25 314 4z m5573 1 c159 -42 277 -171
319 -348 19 -81 19 -263 0 -352 -56 -264 -261 -414 -515 -378 -237 34 -384
227 -397 522 -10 235 63 404 219 507 87 58 257 80 374 49z m-4600 -4 c15 -10
333 -1032 327 -1049 -4 -10 -32 -13 -114 -13 l-108 0 -26 88 c-44 148 -18 132
-214 132 l-170 0 -34 -107 -33 -108 -109 -3 c-59 -1 -112 1 -117 6 -6 6 45
180 127 438 177 555 192 601 200 614 7 12 254 14 271 2z m1017 -21 c126 -50
199 -165 200 -316 1 -135 -51 -238 -145 -286 l-39 -20 27 -47 c15 -26 59 -96
97 -157 104 -164 121 -195 110 -206 -5 -5 -62 -8 -129 -7 l-119 3 -72 125
c-39 69 -88 151 -107 183 l-35 57 -56 0 -55 0 0 -173 c0 -121 -4 -177 -12
-185 -8 -8 -46 -12 -103 -12 -57 0 -95 4 -103 12 -18 18 -17 1029 1 1047 9 10
66 12 247 9 216 -4 240 -6 293 -27z m606 15 c8 -9 10 -157 9 -532 l-3 -519
-105 0 -105 0 -3 520 c-1 286 0 526 3 533 7 18 189 17 204 -2z m487 6 c5 -4
70 -157 144 -340 73 -183 136 -329 140 -325 4 4 64 152 134 328 71 176 133
326 138 333 8 9 44 12 137 10 l126 -3 0 -530 0 -530 -100 0 -100 0 -5 345 c-3
190 -6 336 -8 324 -1 -11 -6 -24 -11 -30 -4 -5 -52 -119 -106 -254 -54 -135
-103 -251 -108 -257 -6 -9 -39 -13 -98 -13 -81 0 -90 2 -103 23 -8 12 -44 95
-80 185 -56 138 -146 353 -150 359 0 1 0 -148 2 -331 3 -281 1 -335 -12 -345
-9 -8 -45 -11 -107 -9 l-94 3 -3 520 c-1 286 0 526 3 533 5 13 241 18 261 4z
m1557 -22 c186 -64 271 -300 181 -501 -33 -72 -85 -121 -173 -162 -59 -27 -78
-31 -188 -35 l-123 -4 -2 -167 -3 -166 -99 -3 c-64 -2 -103 1 -112 9 -20 16
-21 1028 -1 1048 9 10 62 12 232 9 199 -4 227 -7 288 -28z m234 -392 c-3 -8
-6 -5 -6 6 -1 11 2 17 5 13 3 -3 4 -12 1 -19z m-832 -953 c217 -45 416 -227
506 -459 36 -94 67 -208 77 -286 l7 -55 320 -5 c411 -6 394 2 381 -193 -44
-668 -125 -1718 -140 -1797 -25 -139 -87 -229 -198 -287 l-53 -28 -1005 0
-1005 0 -67 32 c-114 54 -192 148 -224 268 -23 84 -18 121 25 195 45 78 82
167 108 260 13 49 18 100 17 210 0 127 -3 157 -27 244 -34 124 -100 264 -171
366 l-55 79 -16 285 c-17 312 -17 313 38 346 30 19 53 20 343 20 l310 0 17 94
c47 264 158 477 310 592 155 117 321 157 502 119z m-4516 -129 c-2 -2 -26 -6
-54 -10 -34 -4 -43 -3 -30 3 19 9 93 15 84 7z m2131 -71 l0 -75 -85 0 -85 0 0
75 0 75 85 0 85 0 0 -75z m-2070 55 c11 -8 7 -9 -15 -4 -37 8 -45 14 -19 14
10 0 26 -5 34 -10z m-220 -32 c-95 -58 -147 -160 -137 -268 4 -43 3 -50 -5
-30 -5 14 -8 50 -5 81 8 89 58 171 135 220 25 16 50 29 56 29 6 0 -14 -15 -44
-32z m350 -47 c19 -17 32 -32 30 -35 -3 -2 -27 16 -55 42 -54 49 -33 43 25 -7z
m-132 -76 c15 -10 180 -170 367 -357 306 -306 338 -341 321 -351 -10 -7 -48
-32 -85 -56 -36 -25 -61 -38 -54 -30 10 12 -16 43 -143 173 -113 117 -151 162
-142 169 9 6 8 7 -5 3 -13 -4 -59 37 -185 167 -91 94 -188 193 -213 219 -45
44 -46 47 -29 63 40 36 110 36 168 0z m582 -381 c13 -16 -73 68 -193 186 -119
118 -217 218 -217 222 0 8 365 -356 410 -408z m1080 301 l75 -75 -75 -75 -75
-75 -78 78 -78 79 73 71 c40 40 75 72 78 72 3 0 39 -34 80 -75z m780 -190 l0
-85 -95 0 -95 0 0 85 0 85 95 0 95 0 0 -85z m-2770 30 c0 -5 -5 -3 -10 5 -5 8
-10 20 -10 25 0 6 5 3 10 -5 5 -8 10 -19 10 -25z m669 -783 c-74 -105 -127
-276 -139 -447 -6 -102 -7 -104 -8 -35 -4 176 48 344 158 517 14 22 2 35 -318
355 -182 184 -338 342 -346 353 -8 11 145 -139 339 -334 l352 -354 -38 -55z
m1672 591 c24 -27 58 -63 74 -81 l29 -32 -79 -80 c-71 -71 -77 -80 -55 -81 14
0 34 -5 45 -10 28 -13 -13 -7 -135 20 -128 28 -225 36 -410 34 -158 -1 -391
-33 -398 -54 -2 -5 -8 -7 -13 -3 -22 13 -296 -97 -285 -115 4 -5 1 -13 -5 -17
-8 -4 -9 -3 -5 4 14 23 -20 11 -74 -27 -30 -21 -54 -43 -52 -50 1 -7 -2 -10
-8 -6 -12 7 -102 -74 -94 -86 3 -5 2 -9 -3 -8 -20 4 -27 -2 -13 -12 13 -9 12
-10 -3 -5 -12 4 -21 -2 -29 -19 -6 -14 -15 -25 -19 -25 -5 0 -29 -42 -54 -92
-48 -99 -62 -107 -20 -12 177 399 806 625 1435 515 58 -10 106 -17 108 -16 1
1 -33 39 -76 84 -42 44 -71 81 -64 81 8 0 43 32 79 70 36 39 68 70 72 70 4 0
27 -21 52 -47z m-1150 -184 c18 6 34 9 36 7 3 -2 -12 -9 -33 -16 l-37 -12
-111 113 -111 114 111 -109 c112 -109 112 -109 145 -97z m493 100 c-121 -9
-286 -39 -377 -70 -33 -11 -61 -18 -63 -16 -5 4 98 38 174 57 83 21 218 38
297 38 77 -1 75 -1 -31 -9z m299 4 c-24 -2 -62 -2 -85 0 -24 2 -5 4 42 4 47 0
66 -2 43 -4z m110 -10 c-13 -2 -33 -2 -45 0 -13 2 -3 4 22 4 25 0 35 -2 23 -4z
m414 -87 c38 -13 83 -31 99 -41 16 -9 20 -13 9 -9 -140 50 -198 73 -189 73 6
1 42 -10 81 -23z m-572 -66 c-3 -5 -11 -10 -16 -10 -6 0 -7 5 -4 10 3 6 11 10
16 10 6 0 7 -4 4 -10z m793 -29 c79 -40 245 -145 295 -187 40 -34 22 -30 -22
4 -71 56 -167 117 -266 169 -116 61 -121 72 -7 14z m-1080 -6 c-3 -3 -9 2 -12
12 -6 14 -5 15 5 6 7 -7 10 -15 7 -18z m196 -20 c3 -9 18 -15 37 -15 18 0 30
-2 28 -4 -6 -7 -265 -19 -258 -12 3 3 31 7 62 8 43 2 57 6 58 18 0 10 2 11 6
3 2 -7 18 -13 35 -13 26 0 29 2 18 15 -7 9 -8 15 -2 15 5 0 12 -7 16 -15z
m681 -42 c366 -143 683 -426 804 -718 57 -136 74 -217 74 -355 1 -132 -11
-198 -56 -310 -51 -126 -182 -282 -312 -371 -72 -50 -240 -132 -258 -126 -6 2
4 9 23 15 60 20 205 98 203 109 -1 6 4 10 11 9 44 -4 270 224 251 254 -4 6 -1
9 5 8 16 -4 62 81 88 162 27 84 46 238 38 310 -13 112 -47 226 -100 335 -57
116 -112 199 -126 190 -5 -3 -12 0 -16 6 -4 8 -3 9 4 5 22 -13 12 5 -25 50
-21 25 -43 42 -51 39 -7 -3 -10 0 -7 6 7 11 -36 59 -57 63 -21 3 -39 17 -33
25 5 9 -84 80 -160 128 -117 74 -178 103 -199 98 -16 -5 -17 -4 -7 3 11 8 6
14 -23 26 -90 38 -181 66 -193 62 -9 -4 -11 -1 -7 6 5 8 2 9 -10 5 -11 -4 -15
-3 -10 4 8 14 37 6 149 -38z m-885 8 c0 -4 -34 -13 -76 -20 -100 -17 -246 -61
-312 -95 -30 -15 -56 -25 -58 -23 -6 6 68 45 121 64 55 21 93 31 213 57 56 12
99 26 95 31 -4 4 -2 5 5 1 6 -4 12 -11 12 -15z m469 -7 c3 -4 -16 -4 -43 0
-27 3 -62 6 -77 6 -16 0 -29 4 -29 8 0 9 139 -4 149 -14z m110 -14 c8 0 12 -2
9 -5 -8 -8 -108 6 -108 15 0 4 19 4 43 -1 23 -4 48 -8 56 -9z m191 -16 c0 -8
-5 -12 -10 -9 -6 4 -8 11 -5 16 9 14 15 11 15 -7z m-85 -14 c66 -25 46 -25
-30 0 -33 10 -51 19 -40 19 11 0 43 -9 70 -19z m-1125 -6 c0 -2 -12 -4 -27 -4
-21 0 -24 3 -14 9 13 8 41 5 41 -5z m1195 -14 c3 -5 1 -10 -4 -10 -6 0 -11 5
-11 10 0 6 2 10 4 10 3 0 8 -4 11 -10z m86 -30 c42 -17 54 -18 60 -8 6 9 9 6
9 -9 l0 -23 -52 21 c-87 35 -94 38 -81 38 7 1 36 -8 64 -19z m236 -26 c-3 -3
-12 -4 -19 -1 -8 3 -5 6 6 6 11 1 17 -2 13 -5z m-1537 -18 c0 -3 -26 -19 -57
-37 -86 -49 -221 -189 -261 -271 -18 -37 -35 -81 -38 -97 -4 -17 -10 -31 -15
-31 -26 0 77 205 129 257 7 7 10 18 6 24 -4 7 -3 9 4 5 5 -3 12 -2 14 2 1 5
28 28 58 52 30 23 54 47 53 51 -2 5 3 6 10 3 7 -2 28 7 47 20 33 24 50 31 50
22z m1432 -10 c9 0 14 -4 12 -8 -3 -4 0 -8 6 -8 13 0 124 -69 209 -129 35 -25
67 -45 72 -44 5 2 8 0 7 -5 -5 -13 87 -89 102 -85 10 3 11 2 3 -4 -12 -8 -7
-15 73 -105 13 -15 24 -32 24 -38 0 -5 7 -10 16 -10 8 0 13 -4 10 -9 -3 -5 12
-39 33 -76 21 -36 41 -63 43 -58 3 4 3 2 2 -4 -4 -17 6 -44 15 -39 3 2 6 -6 7
-17 0 -12 4 -35 8 -52 4 -16 -6 3 -23 43 -58 144 -155 281 -282 399 -91 85
-174 144 -309 218 -47 26 -76 43 -65 39 11 -4 28 -7 37 -8z m78 4 c0 -5 -5
-10 -11 -10 -5 0 -7 5 -4 10 3 6 8 10 11 10 2 0 4 -4 4 -10z m514 -139 c39
-39 68 -72 65 -73 -2 -2 -51 44 -109 102 -57 58 -86 91 -65 73 22 -17 71 -63
109 -102z m-274 5 c0 -2 -7 -7 -16 -10 -8 -3 -12 -2 -9 4 6 10 25 14 25 6z
m-765 -84 c80 -65 105 -97 104 -132 -2 -33 -2 -34 -6 -5 -3 17 -9 34 -13 39
-6 6 -49 -7 -110 -33 l-100 -43 0 -79 0 -79 -90 45 c-69 35 -90 50 -90 66 0
11 35 72 78 135 l77 115 65 -6 c36 -4 74 -14 85 -23z m-1305 -36 c0 -2 -7 -7
-16 -10 -8 -3 -12 -2 -9 4 6 10 25 14 25 6z m-156 -140 c-3 -15 -8 -25 -11
-23 -2 3 -1 17 3 31 3 15 8 25 11 23 2 -3 1 -17 -3 -31z m1573 -38 c-3 -7 -5
-2 -5 12 0 14 2 19 5 13 2 -7 2 -19 0 -25z m-1582 -37 c0 -22 -4 -37 -9 -34
-12 8 -1 -199 14 -265 6 -28 15 -50 20 -47 4 3 6 -5 2 -17 -4 -16 -2 -19 8
-13 9 5 11 4 6 -4 -10 -16 33 -123 47 -114 5 3 7 1 3 -5 -8 -14 50 -118 64
-114 6 1 9 -2 5 -8 -21 -33 334 -384 368 -363 5 3 7 1 4 -4 -4 -6 23 -30 59
-54 54 -35 67 -40 76 -28 8 11 9 11 5 -3 -3 -9 0 -19 8 -22 10 -3 12 0 9 12
-3 9 2 4 11 -11 10 -18 22 -26 31 -23 8 3 13 2 10 -3 -3 -4 7 -14 22 -21 415
-194 845 -247 1216 -150 43 12 80 19 83 17 8 -9 -160 -48 -265 -62 -192 -26
-377 -16 -591 31 -752 167 -1300 747 -1225 1298 8 56 19 60 19 7z m110 -118
c1 -163 10 -204 82 -348 264 -531 1054 -878 1693 -744 376 79 644 326 696 642
16 95 13 170 -11 287 -2 14 0 11 7 -7 6 -18 14 -33 17 -33 11 0 5 -234 -8
-293 -32 -148 -158 -337 -281 -422 -22 -15 -37 -31 -34 -36 3 -5 -1 -6 -8 -4
-8 3 -23 -3 -33 -12 -11 -10 -46 -30 -77 -44 -32 -14 -56 -28 -54 -30 2 -2 -5
-5 -17 -6 -12 0 -35 -7 -52 -14 -16 -6 -35 -13 -41 -15 -7 -1 -44 -9 -82 -18
-39 -9 -83 -16 -97 -16 -14 0 -24 -4 -21 -8 2 -4 -82 -7 -187 -7 -259 2 -444
37 -658 126 -39 16 -76 26 -82 22 -5 -3 -7 -1 -3 5 3 6 -3 14 -15 17 -35 11
-190 104 -272 163 -98 70 -243 214 -306 303 -26 38 -50 66 -54 63 -3 -3 -5 1
-4 8 0 7 -16 48 -36 90 -20 42 -37 82 -37 88 0 6 -3 9 -7 7 -5 -3 -9 11 -10
31 -1 19 -5 38 -10 41 -9 7 -11 29 -13 168 -2 84 4 143 13 143 1 0 2 -66 2
-147z m1470 127 c-3 -5 -12 -10 -18 -10 -7 0 -6 4 3 10 19 12 23 12 15 0z
m-35 -14 c0 -6 -93 -37 -97 -32 -2 2 15 11 39 19 47 17 58 19 58 13z m-521
-281 l118 -94 9 -66 10 -67 -51 -44 c-29 -24 -56 -44 -61 -44 -5 0 -20 45 -33
100 l-23 100 -78 0 c-57 0 -81 4 -90 15 -16 19 -32 15 -36 -9 -2 -12 2 -16 12
-12 20 8 17 -11 -5 -33 -11 -11 -17 -22 -13 -25 3 -3 1 -6 -5 -6 -6 0 -13 8
-16 19 -3 15 0 17 17 13 20 -5 20 -5 4 20 -15 22 -15 27 -1 40 13 14 11 18
-17 38 -33 24 -52 21 -27 -4 8 -8 17 -12 21 -9 3 4 6 -1 6 -10 0 -9 -6 -15
-12 -13 -7 1 -10 1 -7 -1 8 -5 -2 -53 -11 -53 -4 0 -7 8 -7 18 0 9 -5 28 -11
42 -10 24 -11 24 -11 3 -1 -13 -5 -23 -11 -23 -14 0 -38 -52 -32 -70 5 -15 30
-34 44 -35 4 0 13 -7 20 -16 32 -40 93 -74 142 -80 l51 -6 -50 -1 c-46 -1 -57
3 -129 56 -43 31 -84 65 -89 74 -12 19 -12 20 57 143 42 77 46 81 107 107 35
15 70 28 77 28 7 0 66 -43 131 -95z m-1182 33 c-2 -13 -4 -5 -4 17 -1 22 1 32
4 23 2 -10 2 -28 0 -40z m2800 36 c-3 -3 -12 -4 -19 -1 -8 3 -5 6 6 6 11 1 17
-2 13 -5z m-2790 -96 c-3 -8 -6 -5 -6 6 -1 11 2 17 5 13 3 -3 4 -12 1 -19z
m10 -40 c-3 -8 -6 -5 -6 6 -1 11 2 17 5 13 3 -3 4 -12 1 -19z m1792 -23 c16
-8 41 -29 56 -46 l27 -33 -22 -16 c-58 -44 -88 -54 -128 -42 -67 21 -69 24
-42 82 21 46 44 67 73 69 4 1 21 -6 36 -14z m-1770 -45 c0 -9 -4 -8 -9 5 -5
11 -9 27 -9 35 0 9 4 8 9 -5 5 -11 9 -27 9 -35z m2752 -13 c-10 -9 -11 -8 -5
6 3 10 9 15 12 12 3 -3 0 -11 -7 -18z m-1931 -2 c11 -13 10 -14 -4 -9 -9 3
-16 10 -16 15 0 13 6 11 20 -6z m-801 -45 c0 -10 -3 -8 -9 5 -12 27 -12 43 0
25 5 -8 9 -22 9 -30z m796 20 c3 -5 1 -10 -4 -10 -6 0 -11 5 -11 10 0 6 2 10
4 10 3 0 8 -4 11 -10z m70 -23 c6 -5 3 -7 -7 -3 -21 6 -23 -5 -6 -22 9 -9 9
-12 1 -12 -7 0 -14 9 -18 20 -7 22 3 46 14 33 3 -4 11 -12 16 -16z m-845 -52
c0 -5 -5 -3 -10 5 -5 8 -10 20 -10 25 0 6 5 3 10 -5 5 -8 10 -19 10 -25z m875
-13 c-3 -3 -11 0 -18 7 -9 10 -8 11 6 5 10 -3 15 -9 12 -12z m-856 -32 c11
-24 11 -24 -3 -6 -9 11 -16 24 -16 30 0 12 5 7 19 -24z m1049 -7 c-10 -2 -26
-2 -35 0 -10 3 -2 5 17 5 19 0 27 -2 18 -5z m-969 -131 c24 -40 41 -75 38 -79
-4 -3 -10 3 -14 13 -4 10 -26 51 -50 90 -24 39 -43 75 -43 80 0 10 14 -10 69
-104z m288 22 c-3 -3 -12 -4 -19 -1 -8 3 -5 6 6 6 11 1 17 -2 13 -5z m1652
-71 c59 -48 62 -52 59 -88 -3 -26 -10 -33 -60 -53 -63 -24 -76 -22 -138 27
-21 16 -22 23 -13 43 15 32 82 108 95 108 6 0 32 -17 57 -37z m-566 -95 c8
-17 13 -37 10 -44 -8 -22 -51 -25 -89 -6 l-36 18 27 32 c35 42 68 42 88 0z
m-1171 -225 c66 -95 185 -222 281 -299 83 -67 98 -80 77 -69 -41 22 -144 113
-225 196 -92 95 -192 234 -246 341 -45 89 -34 83 16 -10 24 -45 68 -117 97
-159z m268 213 c0 -3 -4 -8 -10 -11 -5 -3 -10 -1 -10 4 0 6 5 11 10 11 6 0 10
-2 10 -4z m2160 -165 c-17 -34 -131 -144 -230 -224 -52 -43 -127 -105 -167
-140 -40 -34 -101 -77 -135 -95 -68 -35 -64 -32 46 39 39 25 100 73 136 105
36 33 97 85 135 115 71 57 192 175 207 204 13 22 21 18 8 -4z m-1937 2 c-7 -2
-19 -2 -25 0 -7 3 -2 5 12 5 14 0 19 -2 13 -5z m1171 -221 c3 -5 -1 -9 -9 -9
-8 0 -12 4 -9 9 3 4 7 8 9 8 2 0 6 -4 9 -8z m-367 -18 c-3 -3 -12 -4 -19 -1
-8 3 -5 6 6 6 11 1 17 -2 13 -5z m253 -14 c0 -5 -5 -10 -11 -10 -5 0 -7 5 -4
10 3 6 8 10 11 10 2 0 4 -4 4 -10z m-290 -14 c0 -3 -4 -8 -10 -11 -5 -3 -10
-1 -10 4 0 6 5 11 10 11 6 0 10 -2 10 -4z m-840 -182 c0 -2 -9 0 -20 6 -11 6
-20 13 -20 16 0 2 9 0 20 -6 11 -6 20 -13 20 -16z m176 -92 c-5 -4 -166 76
-166 83 0 3 38 -14 85 -37 46 -23 83 -44 81 -46z m1179 16 c-59 -31 -189 -78
-209 -78 -6 1 30 16 79 34 50 18 108 42 130 54 22 12 45 21 50 21 6 0 -17 -14
-50 -31z m-1135 -28 c8 -5 11 -10 5 -10 -5 0 -17 5 -25 10 -8 5 -10 10 -5 10
6 0 17 -5 25 -10z m70 -25 c19 -7 28 -14 20 -14 -8 0 -28 6 -45 14 -39 17 -21
18 25 0z m97 -31 c-3 -3 -12 -4 -19 -1 -8 3 -5 6 6 6 11 1 17 -2 13 -5z m728
-4 c-11 -5 -29 -8 -40 -8 -16 0 -15 2 5 8 34 11 60 11 35 0z m-688 -6 c-3 -3
-12 -4 -19 -1 -8 3 -5 6 6 6 11 1 17 -2 13 -5z m608 -14 c-11 -5 -36 -8 -55
-8 l-35 1 35 7 c19 4 44 8 55 8 l20 1 -20 -9z m-507 -7 c-10 -2 -26 -2 -35 0
-10 3 -2 5 17 5 19 0 27 -2 18 -5z m70 -10 c-10 -2 -26 -2 -35 0 -10 3 -2 5
17 5 19 0 27 -2 18 -5z m257 -3 c-4 -6 -50 -9 -113 -8 l-107 2 110 6 c61 3
111 7 113 8 2 1 0 -2 -3 -8z m73 3 c-10 -2 -28 -2 -40 0 -13 2 -5 4 17 4 22 1
32 -1 23 -4z m-1645 -358 c82 -14 197 -62 235 -97 32 -31 27 -59 -18 -103 -37
-36 -43 -38 -68 -28 -15 6 -56 24 -92 38 -45 19 -89 29 -146 33 -72 4 -88 2
-136 -20 -129 -60 -141 -212 -22 -287 26 -17 104 -49 173 -72 228 -75 322
-131 375 -222 48 -81 52 -237 8 -322 -25 -50 -110 -131 -160 -152 -108 -46
-287 -58 -406 -27 -87 22 -203 82 -254 130 -43 41 -43 43 -28 71 20 38 64 83
81 83 8 0 47 -21 86 -47 110 -71 194 -96 299 -91 96 5 150 27 193 78 48 56 54
136 16 198 -24 38 -98 78 -239 127 -236 83 -318 135 -372 236 -20 38 -23 58
-23 144 0 85 3 106 23 143 54 101 138 164 252 188 73 16 129 16 223 -1z m2465
-1 c97 -20 181 -60 254 -121 326 -272 313 -823 -25 -1053 -148 -101 -338 -131
-532 -84 -107 26 -183 70 -271 158 -133 133 -185 264 -185 466 0 90 4 130 21
185 64 206 199 354 385 424 113 43 228 51 353 25z m-1770 -6 c9 -9 12 -83 12
-270 l0 -258 315 0 315 0 2 268 3 267 80 0 80 0 5 -140 c3 -77 3 -363 0 -635
l-5 -495 -80 0 -80 0 -5 280 -5 280 -312 3 -313 2 0 -274 c0 -223 -3 -276 -14
-285 -9 -7 -42 -11 -88 -9 l-73 3 -3 625 c-1 344 0 631 3 638 6 16 146 17 163
0z m3085 -25 c85 -41 174 -124 213 -200 27 -54 29 -66 29 -178 0 -109 -2 -125
-27 -177 -33 -72 -102 -146 -167 -182 -77 -41 -165 -56 -348 -56 l-163 0 0
-213 c0 -152 -3 -216 -12 -225 -7 -7 -40 -12 -78 -12 -38 0 -71 5 -78 12 -9 9
-12 161 -12 624 0 337 3 620 6 629 6 14 35 16 288 13 l281 -3 68 -32z m1225
-36 c2 -42 -2 -74 -9 -83 -9 -11 -65 -14 -305 -14 -228 0 -294 -3 -295 -12 -1
-20 -1 -289 0 -325 l1 -33 260 0 260 0 5 -23 c4 -13 5 -50 3 -82 l-3 -60 -264
-5 -264 -5 -1 -195 0 -195 299 -3 c224 -2 301 -5 307 -15 10 -16 10 -128 0
-145 -7 -9 -92 -12 -393 -10 l-384 3 -3 625 c-1 344 0 631 3 638 3 10 87 12
392 10 l388 -3 3 -68z m990 0 c2 -42 -2 -74 -9 -83 -9 -11 -65 -14 -305 -14
l-294 0 0 -185 0 -185 260 0 c294 0 280 4 280 -85 0 -89 14 -85 -280 -85
l-260 0 0 -200 0 -200 303 -2 302 -3 3 -74 c2 -53 -1 -77 -10 -82 -22 -14
-752 -11 -766 3 -9 9 -12 161 -12 624 0 337 3 620 6 628 6 15 47 16 393 14
l386 -3 3 -68z m-2871 -19 c-2 -13 -4 -5 -4 17 -1 22 1 32 4 23 2 -10 2 -28 0
-40z m0 -600 c-3 -8 -6 -5 -6 6 -1 11 2 17 5 13 3 -3 4 -12 1 -19z"/>
<path d="M7854 8280 c-105 -32 -173 -225 -146 -410 25 -176 98 -260 226 -260
157 0 236 111 236 331 0 54 -5 120 -11 147 -15 73 -66 151 -114 176 -44 23
-142 31 -191 16z"/>
<path d="M3326 8210 c-3 -8 -26 -89 -52 -180 -26 -91 -49 -171 -51 -177 -4
-10 21 -13 106 -13 61 0 111 3 111 8 -1 29 -109 374 -114 362z"/>
<path d="M4168 8284 c-5 -4 -8 -70 -8 -146 l0 -138 95 0 c61 0 108 5 130 14
68 29 95 121 57 196 -27 53 -69 72 -175 78 -51 2 -95 1 -99 -4z"/>
<path d="M6838 8284 c-5 -4 -8 -79 -8 -166 l0 -158 94 0 c80 0 98 3 126 23 50
33 73 78 72 143 0 64 -24 110 -69 137 -34 19 -201 36 -215 21z"/>
<path d="M6306 6929 c-115 -28 -237 -133 -299 -255 -40 -80 -82 -207 -92 -279
-4 -27 -9 -58 -12 -67 -4 -17 25 -18 516 -18 287 0 521 3 521 8 -1 34 -45 196
-70 258 -65 164 -156 269 -280 328 -55 26 -79 31 -155 33 -49 1 -107 -2 -129
-8z"/>
<path d="M6250 5915 c-169 -48 -266 -153 -292 -318 -10 -64 -9 -85 5 -143 10
-38 29 -86 44 -107 55 -80 179 -150 430 -243 81 -30 169 -68 195 -85 102 -66
149 -166 127 -271 -9 -44 -20 -62 -64 -105 -66 -64 -122 -83 -250 -83 -148 0
-259 35 -395 125 -62 40 -101 42 -132 4 -47 -56 -7 -104 157 -184 132 -64 207
-84 340 -92 231 -12 396 70 473 235 23 49 27 70 26 147 -1 116 -27 188 -97
262 -70 74 -122 105 -298 174 -243 95 -271 108 -322 145 -66 48 -90 103 -85
194 5 85 36 137 109 179 124 71 299 61 457 -25 74 -40 104 -43 137 -9 28 27
32 53 13 77 -24 30 -113 79 -193 105 -103 33 -298 42 -385 18z"/>
<path d="M1958 6823 c7 -3 16 -2 19 1 4 3 -2 6 -13 5 -11 0 -14 -3 -6 -6z"/>
<path d="M1994 6790 c0 -23 5 -37 13 -37 10 0 10 3 0 16 -10 12 -9 14 6 8 9
-3 17 -2 17 4 0 6 4 8 9 4 5 -3 12 -1 16 5 3 5 11 10 16 10 6 0 8 -4 5 -9 -6
-8 17 -33 25 -28 2 1 -1 -3 -8 -9 -7 -6 -13 -17 -13 -25 1 -9 7 -6 19 8 16 20
21 21 31 8 10 -12 10 -15 -2 -15 -8 0 -25 -12 -39 -27 -14 -16 -16 -21 -5 -13
17 14 18 13 12 -8 -5 -14 -3 -22 4 -22 6 0 9 -4 6 -9 -3 -5 8 -8 25 -7 19 0
34 -5 37 -13 3 -10 0 -11 -9 -5 -12 7 -12 5 -1 -9 14 -17 9 -37 -10 -37 -7 0
-6 6 2 15 8 9 9 15 2 15 -6 0 -14 -5 -18 -11 -5 -8 -9 -8 -14 1 -4 7 -9 8 -11
4 -3 -5 17 -29 43 -54 33 -33 46 -41 45 -28 -1 10 -5 18 -9 18 -4 0 -7 3 -7 8
1 4 0 12 -1 17 -1 6 -3 30 -4 55 -1 41 -3 45 -25 42 -15 -2 -21 0 -17 7 11 18
44 13 56 -8 9 -17 50 -26 50 -11 0 12 -66 44 -90 43 -22 -2 -23 -1 -5 6 11 5
25 6 30 4 6 -3 -18 22 -52 56 -35 34 -68 61 -75 62 -7 0 -22 2 -34 3 -17 2
-20 -3 -20 -34z m61 12 c-11 -11 -55 -13 -55 -3 0 6 7 7 17 4 10 -4 14 -2 10
4 -5 7 0 9 13 6 12 -3 18 -8 15 -11z m85 -92 c-8 -5 -15 -15 -15 -22 0 -7 -4
-14 -10 -15 -5 -2 -9 6 -8 17 1 30 1 30 26 30 17 0 19 -2 7 -10z m75 -50 c3
-5 1 -10 -4 -10 -6 0 -11 5 -11 10 0 6 2 10 4 10 3 0 8 -4 11 -10z"/>
<path d="M1920 6810 c-13 -8 -13 -11 2 -26 13 -13 20 -15 31 -6 8 7 18 8 22 4
5 -4 5 -1 1 6 -5 7 -10 11 -14 8 -3 -3 -10 1 -16 9 -8 10 -16 12 -26 5z"/>
<path d="M1957 6763 c-4 -7 10 -26 35 -48 24 -20 48 -45 54 -56 9 -18 12 -19
23 -5 11 13 11 16 -3 16 -19 0 -20 5 -6 30 8 15 6 20 -10 25 -20 6 -20 7 2 27
20 17 19 17 -10 -2 -18 -12 -29 -26 -25 -32 3 -6 -5 -3 -20 8 -14 10 -27 26
-29 34 -3 11 -6 12 -11 3z m90 -69 c-9 -9 -28 6 -21 18 4 6 10 6 17 -1 6 -6 8
-13 4 -17z"/>
<path d="M2070 6639 c0 -5 5 -7 10 -4 6 3 10 8 10 11 0 2 -4 4 -10 4 -5 0 -10
-5 -10 -11z"/>
<path d="M2113 6630 c-13 -5 -23 -12 -23 -15 0 -10 44 2 48 13 4 14 4 14 -25
2z"/>
<path d="M2220 6612 c0 -11 7 -22 15 -26 8 -3 15 -1 15 4 0 13 27 13 35 0 3
-6 -5 -14 -18 -19 -25 -10 -33 -41 -10 -41 8 0 12 4 8 9 -3 5 -1 12 5 16 5 3
10 1 10 -4 0 -6 4 -11 10 -11 5 0 7 7 4 15 -9 22 6 18 27 -7 11 -11 19 -17 19
-12 0 4 -16 25 -37 46 -30 31 -39 35 -56 27 -13 -8 -17 -8 -13 -1 3 6 2 13 -4
17 -5 3 -10 -3 -10 -13z"/>
<path d="M2190 6590 c0 -5 9 -19 20 -30 14 -14 20 -16 20 -6 0 8 -7 17 -16 20
-8 3 -12 10 -9 16 3 5 1 10 -4 10 -6 0 -11 -4 -11 -10z"/>
<path d="M2211 6523 c0 -5 4 -17 9 -28 8 -18 9 -17 9 8 1 15 -3 27 -9 27 -5 0
-10 -3 -9 -7z"/>
<path d="M2290 6520 c0 -5 7 -7 15 -4 8 4 15 8 15 10 0 2 -7 4 -15 4 -8 0 -15
-4 -15 -10z"/>
<path d="M2240 6510 c0 -5 5 -10 10 -10 6 0 10 5 10 10 0 6 -4 10 -10 10 -5 0
-10 -4 -10 -10z"/>
<path d="M2340 6492 c-13 -14 -12 -15 4 -9 12 5 16 3 14 -5 -3 -7 -10 -13 -15
-13 -6 0 -15 -4 -20 -9 -4 -5 -3 -6 4 -2 6 3 14 2 18 -4 3 -5 13 -10 21 -10
11 0 13 7 8 26 -5 19 -4 25 5 20 6 -4 11 -3 11 3 0 5 -4 13 -10 16 -5 3 -10 0
-10 -7 0 -9 -2 -10 -8 -2 -5 8 -11 7 -22 -4z"/>
<path d="M2300 6492 c0 -5 -12 -8 -27 -6 -16 2 -21 1 -13 -2 8 -4 20 -10 25
-14 6 -5 16 -2 22 5 8 9 9 16 3 20 -6 3 -10 2 -10 -3z"/>
<path d="M2261 6454 c0 -11 3 -14 6 -6 3 7 2 16 -1 19 -3 4 -6 -2 -5 -13z"/>
<path d="M2395 6460 c4 -6 10 -8 15 -5 4 3 13 -2 20 -10 10 -12 10 -15 -1 -15
-11 0 -11 -2 1 -10 12 -8 12 -10 1 -10 -8 0 -11 -3 -8 -6 4 -4 13 -2 21 5 11
9 18 7 33 -11 10 -13 27 -29 38 -37 11 -8 -7 13 -40 47 -33 34 -65 62 -73 62
-7 0 -10 -5 -7 -10z"/>
<path d="M2286 6433 c-7 -18 31 -56 46 -47 14 9 8 26 -6 21 -8 -3 -20 2 -28
10 -11 15 -11 16 6 10 16 -6 17 -5 6 8 -16 19 -16 19 -24 -2z"/>
<path d="M2380 6419 c0 -5 -5 -7 -12 -3 -8 5 -9 2 -5 -9 4 -10 1 -17 -6 -17
-7 0 -4 -5 6 -11 9 -5 17 -18 17 -27 0 -15 -2 -15 -10 -2 -8 13 -10 13 -10 -1
0 -9 8 -23 17 -30 10 -8 14 -9 10 -2 -4 6 -3 15 3 18 8 5 7 14 -3 28 -14 23
-12 51 4 42 5 -4 6 1 3 9 -7 18 -14 21 -14 5z"/>
<path d="M2415 6380 c-3 -5 3 -18 15 -30 11 -11 20 -16 20 -11 0 5 -7 15 -16
22 -14 12 -14 14 3 20 16 7 16 8 1 8 -9 1 -19 -3 -23 -9z"/>
<path d="M2466 6326 c3 -9 1 -16 -5 -16 -6 0 -11 -8 -10 -17 0 -10 3 -13 5 -7
3 7 14 9 25 7 16 -5 18 -8 7 -15 -11 -8 -10 -9 1 -6 8 2 15 12 17 21 2 13 -2
16 -17 12 -14 -5 -17 -2 -13 8 3 8 1 18 -5 22 -7 3 -8 0 -5 -9z"/>
<path d="M2420 6304 c0 -8 5 -12 10 -9 6 4 8 11 5 16 -9 14 -15 11 -15 -7z"/>
<path d="M2598 6274 c6 -12 8 -25 4 -29 -4 -5 -2 -5 5 -1 7 3 14 -2 18 -14 3
-11 14 -20 23 -21 11 0 12 -3 5 -6 -7 -2 -13 -9 -13 -15 0 -7 5 -6 14 1 12 10
21 6 48 -18 25 -23 29 -30 16 -31 -17 0 -17 -1 0 -18 14 -15 18 -16 26 -4 6
10 -15 36 -75 95 -45 45 -77 72 -71 61z"/>
<path d="M2450 6261 c29 -24 36 -25 46 -8 4 6 4 9 -1 5 -4 -4 -22 0 -39 8
l-31 15 25 -20z"/>
<path d="M2517 6274 c-12 -12 3 -22 24 -17 16 4 17 8 7 14 -16 10 -23 11 -31
3z"/>
<path d="M2527 6243 c-4 -3 -7 -11 -7 -17 0 -6 5 -4 10 4 7 11 10 12 10 2 0
-9 7 -11 20 -7 14 4 20 2 20 -9 0 -9 -7 -13 -20 -11 -11 2 -20 -2 -20 -8 0 -7
-4 -6 -10 3 -5 8 -10 10 -10 4 0 -6 8 -18 17 -25 11 -10 14 -10 9 -1 -4 6 -2
13 3 13 6 1 16 3 21 4 6 1 14 3 18 4 5 0 9 8 9 16 0 16 -24 28 -38 19 -5 -3
-9 0 -9 5 0 12 -13 14 -23 4z"/>
<path d="M2501 6204 c0 -11 3 -14 6 -6 3 7 2 16 -1 19 -3 4 -6 -2 -5 -13z"/>
<path d="M2585 6170 c-3 -5 -3 -14 0 -20 3 -6 -1 -7 -9 -4 -9 3 -16 2 -16 -4
0 -5 7 -12 15 -16 8 -3 15 -1 15 4 0 5 7 7 15 4 8 -4 15 -1 15 5 0 6 -3 10 -7
10 -20 -3 -24 2 -13 16 8 9 9 15 2 15 -6 0 -14 -4 -17 -10z"/>
<path d="M2665 6170 c3 -5 8 -10 11 -10 2 0 4 5 4 10 0 6 -5 10 -11 10 -5 0
-7 -4 -4 -10z"/>
<path d="M2655 6121 c-3 -5 -1 -12 5 -16 5 -3 10 1 10 9 0 18 -6 21 -15 7z"/>
<path d="M2683 6096 c3 -7 0 -19 -6 -26 -8 -8 -5 -8 11 1 26 16 29 39 6 39
-10 0 -14 -6 -11 -14z"/>
<path d="M4570 3214 c-142 -38 -270 -181 -306 -341 -22 -98 -15 -235 15 -313
46 -122 176 -243 294 -275 103 -28 232 -18 320 23 88 41 173 126 218 217 29
59 33 78 37 171 5 123 -9 206 -48 285 -36 69 -116 159 -174 193 -92 54 -241
71 -356 40z"/>
<path d="M5694 3221 c-2 -2 -4 -114 -4 -248 l0 -243 150 0 c177 0 236 11 292
54 138 104 117 330 -37 414 -24 14 -68 18 -213 22 -101 3 -186 3 -188 1z"/>
</g>
</svg>
